<svg width="439" height="85" viewBox="0 0 439 85" fill="none" xmlns="http://www.w3.org/2000/svg">
<g filter="url(#filter0_d_160_15)">
<path d="M36.33 58.12C32.41 58.12 28.77 57.5133 25.41 56.3C22.0967 55.04 19.2033 53.2667 16.73 50.98C14.3033 48.6933 12.4133 45.9867 11.06 42.86C9.70667 39.7333 9.03 36.28 9.03 32.5C9.03 28.72 9.70667 25.2667 11.06 22.14C12.4133 19.0133 14.3033 16.3067 16.73 14.02C19.2033 11.7333 22.0967 9.98333 25.41 8.77C28.77 7.51 32.41 6.88 36.33 6.88C41.1367 6.88 45.3833 7.72 49.07 9.4C52.8033 11.08 55.8833 13.5067 58.31 16.68L47.88 25.99C46.4333 24.17 44.8233 22.77 43.05 21.79C41.3233 20.7633 39.3633 20.25 37.17 20.25C35.4433 20.25 33.88 20.53 32.48 21.09C31.08 21.65 29.8667 22.4667 28.84 23.54C27.86 24.6133 27.09 25.92 26.53 27.46C25.97 28.9533 25.69 30.6333 25.69 32.5C25.69 34.3667 25.97 36.07 26.53 37.61C27.09 39.1033 27.86 40.3867 28.84 41.46C29.8667 42.5333 31.08 43.35 32.48 43.91C33.88 44.47 35.4433 44.75 37.17 44.75C39.3633 44.75 41.3233 44.26 43.05 43.28C44.8233 42.2533 46.4333 40.83 47.88 39.01L58.31 48.32C55.8833 51.4467 52.8033 53.8733 49.07 55.6C45.3833 57.28 41.1367 58.12 36.33 58.12ZM70.9898 71.28C68.8898 71.28 66.7432 70.9533 64.5498 70.3C62.4032 69.6933 60.6765 68.8767 59.3698 67.85L64.6198 57C65.4132 57.6067 66.2998 58.0967 67.2798 58.47C68.3065 58.8433 69.2865 59.03 70.2198 59.03C71.6198 59.03 72.6932 58.7267 73.4398 58.12C74.1865 57.56 74.7932 56.6967 75.2598 55.53L76.8698 51.47L77.9898 49.93L90.2398 18.71H105.22L89.4698 57.77C88.0698 61.27 86.4365 64 84.5698 65.96C82.7498 67.92 80.6965 69.2967 78.4098 70.09C76.1698 70.8833 73.6965 71.28 70.9898 71.28ZM74.6998 58.75L58.0398 18.71H74.2798L85.7598 48.53L74.6998 58.75ZM133.189 57.7C129.689 57.7 126.865 57 124.719 55.6C122.572 54.2 121.009 52.03 120.029 49.09C119.095 46.15 118.629 42.3933 118.629 37.82C118.629 33.2933 119.142 29.5833 120.169 26.69C121.195 23.75 122.782 21.58 124.929 20.18C127.122 18.7333 129.875 18.01 133.189 18.01C136.549 18.01 139.629 18.8033 142.429 20.39C145.229 21.9767 147.469 24.2633 149.149 27.25C150.829 30.19 151.669 33.7133 151.669 37.82C151.669 41.9267 150.829 45.4733 149.149 48.46C147.469 51.4 145.229 53.6867 142.429 55.32C139.629 56.9067 136.549 57.7 133.189 57.7ZM107.639 57V5.06H123.459V23.82L122.759 37.82L122.689 51.82V57H107.639ZM129.409 45.38C130.575 45.38 131.625 45.1 132.559 44.54C133.492 43.98 134.239 43.14 134.799 42.02C135.359 40.8533 135.639 39.4533 135.639 37.82C135.639 36.14 135.359 34.7633 134.799 33.69C134.239 32.57 133.492 31.73 132.559 31.17C131.625 30.61 130.575 30.33 129.409 30.33C128.242 30.33 127.192 30.61 126.259 31.17C125.325 31.73 124.579 32.57 124.019 33.69C123.459 34.7633 123.179 36.14 123.179 37.82C123.179 39.4533 123.459 40.8533 124.019 42.02C124.579 43.14 125.325 43.98 126.259 44.54C127.192 45.1 128.242 45.38 129.409 45.38ZM177.792 57.7C173.126 57.7 169.042 56.8367 165.542 55.11C162.089 53.3833 159.406 51.0267 157.492 48.04C155.579 45.0067 154.622 41.6 154.622 37.82C154.622 33.9467 155.556 30.5167 157.422 27.53C159.336 24.5433 161.926 22.21 165.192 20.53C168.506 18.85 172.216 18.01 176.322 18.01C180.102 18.01 183.579 18.7567 186.752 20.25C189.972 21.7433 192.539 23.96 194.452 26.9C196.412 29.84 197.392 33.48 197.392 37.82C197.392 38.38 197.369 39.01 197.322 39.71C197.276 40.3633 197.229 40.97 197.182 41.53H167.712V33.9H188.782L182.832 35.93C182.832 34.4367 182.552 33.1767 181.992 32.15C181.479 31.0767 180.756 30.26 179.822 29.7C178.889 29.0933 177.769 28.79 176.462 28.79C175.156 28.79 174.012 29.0933 173.032 29.7C172.099 30.26 171.376 31.0767 170.862 32.15C170.349 33.1767 170.092 34.4367 170.092 35.93V38.31C170.092 39.9433 170.419 41.3433 171.072 42.51C171.726 43.6767 172.659 44.5633 173.872 45.17C175.086 45.73 176.556 46.01 178.282 46.01C180.056 46.01 181.502 45.7767 182.622 45.31C183.789 44.8433 185.002 44.1433 186.262 43.21L194.522 51.54C192.656 53.5467 190.346 55.0867 187.592 56.16C184.886 57.1867 181.619 57.7 177.792 57.7ZM202.385 57V18.71H217.435V30.26L214.985 26.97C216.151 23.9833 218.018 21.7433 220.585 20.25C223.151 18.7567 226.231 18.01 229.825 18.01V32.01C229.125 31.9167 228.495 31.8467 227.935 31.8C227.421 31.7533 226.885 31.73 226.325 31.73C223.945 31.73 221.985 32.36 220.445 33.62C218.951 34.8333 218.205 36.9567 218.205 39.99V57H202.385ZM255.785 57V8H279.375C283.948 8 287.892 8.74666 291.205 10.24C294.565 11.7333 297.155 13.88 298.975 16.68C300.795 19.4333 301.705 22.7 301.705 26.48C301.705 30.26 300.795 33.5267 298.975 36.28C297.155 39.0333 294.565 41.18 291.205 42.72C287.892 44.2133 283.948 44.96 279.375 44.96H264.955L272.305 37.89V57H255.785ZM272.305 39.71L264.955 32.22H278.325C280.612 32.22 282.292 31.7067 283.365 30.68C284.485 29.6533 285.045 28.2533 285.045 26.48C285.045 24.7067 284.485 23.3067 283.365 22.28C282.292 21.2533 280.612 20.74 278.325 20.74H264.955L272.305 13.25V39.71ZM329.461 57V50.21L328.341 48.39V35.51C328.341 33.6433 327.758 32.22 326.591 31.24C325.471 30.26 323.628 29.77 321.061 29.77C319.334 29.77 317.584 30.05 315.811 30.61C314.038 31.1233 312.521 31.8467 311.261 32.78L306.221 22.35C308.461 20.95 311.144 19.8767 314.271 19.13C317.398 18.3833 320.454 18.01 323.441 18.01C330.021 18.01 335.108 19.48 338.701 22.42C342.341 25.36 344.161 30.0267 344.161 36.42V57H329.461ZM318.611 57.7C315.484 57.7 312.871 57.1633 310.771 56.09C308.671 55.0167 307.084 53.5933 306.011 51.82C304.938 50 304.401 47.9933 304.401 45.8C304.401 43.3267 305.031 41.2267 306.291 39.5C307.551 37.7733 309.464 36.4667 312.031 35.58C314.644 34.6933 317.934 34.25 321.901 34.25H329.881V41.88H324.421C322.741 41.88 321.504 42.16 320.711 42.72C319.964 43.2333 319.591 44.0267 319.591 45.1C319.591 45.9867 319.918 46.7333 320.571 47.34C321.271 47.9 322.204 48.18 323.371 48.18C324.444 48.18 325.424 47.9 326.311 47.34C327.244 46.7333 327.921 45.8 328.341 44.54L330.371 49.23C329.764 52.0767 328.481 54.2 326.521 55.6C324.561 57 321.924 57.7 318.611 57.7ZM350.998 57V18.71H366.048V30.26L363.598 26.97C364.765 23.9833 366.631 21.7433 369.198 20.25C371.765 18.7567 374.845 18.01 378.438 18.01V32.01C377.738 31.9167 377.108 31.8467 376.548 31.8C376.035 31.7533 375.498 31.73 374.938 31.73C372.558 31.73 370.598 32.36 369.058 33.62C367.565 34.8333 366.818 36.9567 366.818 39.99V57H350.998ZM396.152 50.7L396.502 32.08L409.732 18.71H428.422L410.922 37.05L403.012 43.42L396.152 50.7ZM382.922 57V5.06H398.742V57H382.922ZM410.572 57L400.072 43.7L409.802 31.73L429.682 57H410.572Z" fill="#F5F5F5"/>
</g>
<defs>
<filter id="filter0_d_160_15" x="0.229999" y="0.25957" width="438.252" height="83.8207" filterUnits="userSpaceOnUse" color-interpolation-filters="sRGB">
<feFlood flood-opacity="0" result="BackgroundImageFix"/>
<feColorMatrix in="SourceAlpha" type="matrix" values="0 0 0 0 0 0 0 0 0 0 0 0 0 0 0 0 0 0 127 0" result="hardAlpha"/>
<feOffset dy="4"/>
<feGaussianBlur stdDeviation="4.4"/>
<feComposite in2="hardAlpha" operator="out"/>
<feColorMatrix type="matrix" values="0 0 0 0 0 0 0 0 0 0.0509804 0 0 0 0 0.0941176 0 0 0 1 0"/>
<feBlend mode="normal" in2="BackgroundImageFix" result="effect1_dropShadow_160_15"/>
<feBlend mode="normal" in="SourceGraphic" in2="effect1_dropShadow_160_15" result="shape"/>
</filter>
</defs>
</svg>
